<svg id="Component_13" data-name="Component 13" xmlns="http://www.w3.org/2000/svg" width="151.351" height="13.617" viewBox="0 0 151.351 13.617">
  <g id="Ellipse_1" data-name="Ellipse 1" transform="matrix(0.999, 0.035, -0.035, 0.999, 0.459, 0)" fill="#707070" stroke="#707070" stroke-width="1">
    <circle cx="6.583" cy="6.583" r="6.583" stroke="none"/>
    <circle cx="6.583" cy="6.583" r="6.083" fill="none"/>
  </g>
  <g id="Ellipse_2" data-name="Ellipse 2" transform="matrix(0.999, 0.035, -0.035, 0.999, 17.676, 0)" fill="#fff" stroke="#707070" stroke-width="1">
    <circle cx="6.583" cy="6.583" r="6.583" stroke="none"/>
    <circle cx="6.583" cy="6.583" r="6.083" fill="none"/>
  </g>
  <g id="Ellipse_3" data-name="Ellipse 3" transform="matrix(0.999, 0.035, -0.035, 0.999, 34.893, 0)" fill="#fff" stroke="#707070" stroke-width="1">
    <circle cx="6.583" cy="6.583" r="6.583" stroke="none"/>
    <circle cx="6.583" cy="6.583" r="6.083" fill="none"/>
  </g>
  <g id="Ellipse_4" data-name="Ellipse 4" transform="matrix(0.999, 0.035, -0.035, 0.999, 52.11, 0)" fill="#fff" stroke="#707070" stroke-width="1">
    <circle cx="6.583" cy="6.583" r="6.583" stroke="none"/>
    <circle cx="6.583" cy="6.583" r="6.083" fill="none"/>
  </g>
  <g id="Ellipse_5" data-name="Ellipse 5" transform="matrix(0.999, 0.035, -0.035, 0.999, 69.326, 0)" fill="#fff" stroke="#707070" stroke-width="1">
    <circle cx="6.583" cy="6.583" r="6.583" stroke="none"/>
    <circle cx="6.583" cy="6.583" r="6.083" fill="none"/>
  </g>
  <g id="Ellipse_6" data-name="Ellipse 6" transform="matrix(0.999, 0.035, -0.035, 0.999, 86.543, 0)" fill="#fff" stroke="#707070" stroke-width="1">
    <circle cx="6.583" cy="6.583" r="6.583" stroke="none"/>
    <circle cx="6.583" cy="6.583" r="6.083" fill="none"/>
  </g>
  <g id="Ellipse_7" data-name="Ellipse 7" transform="matrix(0.999, 0.035, -0.035, 0.999, 103.76, 0)" fill="#fff" stroke="#707070" stroke-width="1">
    <circle cx="6.583" cy="6.583" r="6.583" stroke="none"/>
    <circle cx="6.583" cy="6.583" r="6.083" fill="none"/>
  </g>
  <g id="Ellipse_8" data-name="Ellipse 8" transform="matrix(0.999, 0.035, -0.035, 0.999, 120.977, 0)" fill="#fff" stroke="#707070" stroke-width="1">
    <circle cx="6.583" cy="6.583" r="6.583" stroke="none"/>
    <circle cx="6.583" cy="6.583" r="6.083" fill="none"/>
  </g>
  <g id="Ellipse_9" data-name="Ellipse 9" transform="matrix(0.999, 0.035, -0.035, 0.999, 138.193, 0)" fill="#fff" stroke="#707070" stroke-width="1">
    <circle cx="6.583" cy="6.583" r="6.583" stroke="none"/>
    <circle cx="6.583" cy="6.583" r="6.083" fill="none"/>
  </g>
</svg>
