<svg xmlns="http://www.w3.org/2000/svg" width="54.401" height="42.282" viewBox="0 0 54.401 42.282">
  <g id="Icon_awesome-bars" data-name="Icon awesome-bars" transform="translate(0 0)">
    <path id="Icon_awesome-bars-2" data-name="Icon awesome-bars" d="M1.943,11.985H52.458A1.844,1.844,0,0,0,54.4,10.259V5.945a1.844,1.844,0,0,0-1.943-1.726H1.943A1.844,1.844,0,0,0,0,5.945v4.314A1.844,1.844,0,0,0,1.943,11.985Zm0,17.258H52.458A1.844,1.844,0,0,0,54.4,27.517V23.2a1.844,1.844,0,0,0-1.943-1.726H1.943A1.844,1.844,0,0,0,0,23.2v4.314A1.844,1.844,0,0,0,1.943,29.243Zm0,17.258H52.458A1.844,1.844,0,0,0,54.4,44.775V40.46a1.844,1.844,0,0,0-1.943-1.726H1.943A1.844,1.844,0,0,0,0,40.46v4.314A1.844,1.844,0,0,0,1.943,46.5Z" transform="translate(0 -4.219)"/>
  </g>
</svg>
