<svg id="Icon_ionic-ios-share" data-name="Icon ionic-ios-share" xmlns="http://www.w3.org/2000/svg" width="22.5" height="29.243" viewBox="0 0 22.5 29.243">
  <path id="Path_8" data-name="Path 8" d="M26.438,12.375H18.914V22.683a.939.939,0,0,1-.872.942.909.909,0,0,1-.956-.914V12.375H9.563A2.821,2.821,0,0,0,6.75,15.188V29.813a2.821,2.821,0,0,0,2.813,2.813H26.438a2.821,2.821,0,0,0,2.813-2.812V15.188A2.821,2.821,0,0,0,26.438,12.375Z" transform="translate(-6.75 -3.382)" fill="#060606"/>
  <path id="Path_9" data-name="Path 9" d="M18.914,6.476l3.368,3.319a.915.915,0,0,0,1.287-1.3L18.647,3.642a.929.929,0,0,0-.64-.26.872.872,0,0,0-.352.07.977.977,0,0,0-.288.19h0L12.445,8.494a.915.915,0,0,0,1.287,1.3l3.354-3.319v5.9h1.828Z" transform="translate(-6.75 -3.382)" fill="#060606"/>
</svg>
